<svg id="_x33_0" enable-background="new 0 0 64 64" height="512" viewBox="0 0 64 64" width="512" xmlns="http://www.w3.org/2000/svg"><g><path d="m63 36c0-1.654-1.346-3-3-3-.395 0-.77.081-1.116.22-.345-1.275-1.501-2.22-2.884-2.22-.771 0-1.468.301-2 .78-.532-.48-1.229-.78-2-.78-.352 0-.686.072-1 .184v-5.184c0-1.654-1.346-3-3-3s-3 1.346-3 3v11.697c0 .719-.584 1.303-1.303 1.303-.258 0-.508-.076-.723-.219l-1.188-.792c-.97-.647-2.1-.989-3.268-.989-.546 0-1.057.136-1.519.359v-8.359h-27.999v18h28v-3.919l2.347 1.877c.538.431.958.997 1.215 1.639l.171.427c.278.693.619 1.351 1.008 1.976h-34.741v-42h36v2.616c-.097-.108-.189-.219-.293-.323l-.707-.708-.707.708c-1.479 1.479-2.293 3.445-2.293 5.536v5.566c0 2.556.75 5.032 2.168 7.16l1.664-1.109c-1.198-1.799-1.832-3.891-1.832-6.051v-5.566c0-1.182.35-2.311 1-3.268.65.957 1 2.085 1 3.268v6.171h2v-2.343c0-1.182.35-2.311 1-3.267.65.957 1 2.085 1 3.267v2.343h2v-4.171c0-1.182.35-2.311 1-3.268.65.957 1 2.085 1 3.268v1.566c0 2.556.75 5.032 2.168 7.16l.832 1.248.832-1.249c.603-.905 1.077-1.875 1.432-2.884 1.099 1.415 2.81 2.33 4.736 2.33v-2c-2.206 0-4-1.794-4-4v-6h-2v5.395c0 1.588-.343 3.14-1 4.564-.657-1.425-1-2.977-1-4.564v-1.566c0-2.091-.814-4.057-2.293-5.536l-.707-.708-.707.708c-.104.104-.196.215-.293.323v-7.616c0-1.654-1.346-3-3-3h-42c-1.654 0-3 1.346-3 3v56c0 1.654 1.346 3 3 3h58.105l-1.077-10.765c1.286-2.055 1.972-4.41 1.972-6.84zm-28 9h-24v-14h24zm5.596-1.604-3.596-2.877c0-.838.682-1.519 1.52-1.519.771 0 1.517.226 2.157.653l1.188.792c.544.363 1.178.555 1.832.555 1.822 0 3.303-1.481 3.303-3.303v-11.697c0-.551.448-1 1-1s1 .449 1 1v15h2v-7c0-.551.448-1 1-1s1 .449 1 1v7h2v-7c0-.551.448-1 1-1s1 .449 1 1v7h2v-5c0-.551.448-1 1-1s1 .449 1 1v9.395c0 1.984-.534 3.911-1.551 5.605h-13.138c-1.674-1.184-2.957-2.81-3.722-4.72l-.171-.426c-.384-.962-1.014-1.812-1.822-2.458zm-37.596 16.604v-56c0-.551.448-1 1-1h42c.552 0 1 .449 1 1v9.445c-.097-.108-.189-.219-.293-.323l-.707-.707-.707.707c-.104.104-.196.215-.293.323v-6.445c0-1.103-.897-2-2-2h-36c-1.103 0-2 .897-2 2v42c0 1.103.897 2 2 2h36.271c.509.539 1.073 1.027 1.676 1.473l-.852 8.527h-40.095c-.552 0-1-.449-1-1zm43.105 1 .8-8h12.19l.8 8z"/><path d="m29 53h-8c-1.103 0-2 .897-2 2v2c0 1.103.897 2 2 2h8c1.103 0 2-.897 2-2v-2c0-1.103-.897-2-2-2zm-8 4v-2h8l.001 2z"/><path d="m13 37h2v2h-2z"/><path d="m17 37h16v2h-16z"/><path d="m13 33h2v2h-2z"/><path d="m17 33h16v2h-16z"/><path d="m13 41h2v2h-2z"/><path d="m17 41h16v2h-16z"/><path d="m37 9h-28v8h28zm-2 6h-24v-4h24z"/><path d="m9 19h10v2h-10z"/><path d="m21 19h16v2h-16z"/><path d="m9 23h24v2h-24z"/><path d="m35 23h2v2h-2z"/></g></svg>