<?xml version="1.0"?>
<svg xmlns="http://www.w3.org/2000/svg" viewBox="0 0 512 512" width="512" height="512"><g id="outline"><path d="M462,80H320V64a16.019,16.019,0,0,0-16-16H295.2a40,40,0,0,0-78.39,0H208a16.019,16.019,0,0,0-16,16V80H50a34.038,34.038,0,0,0-34,34V406a34.038,34.038,0,0,0,34,34H189.394l-13.086,45.8A8,8,0,0,0,184,496H328a8,8,0,0,0,7.692-10.2L322.606,440H462a34.038,34.038,0,0,0,34-34V114A34.038,34.038,0,0,0,462,80ZM408,328a24,24,0,1,1,24-24A24.028,24.028,0,0,1,408,328Zm-19.2,11.077a39.918,39.918,0,0,0,38.4.006A48,48,0,0,1,447.929,376H368.072A48.213,48.213,0,0,1,388.8,339.077ZM463.941,376a64.026,64.026,0,0,0-24.271-47.608,40,40,0,1,0-63.336,0A64.312,64.312,0,0,0,352.06,376H336V240H480V376ZM408,176a24,24,0,1,1,24-24A24.028,24.028,0,0,1,408,176Zm-19.2,11.08a39.917,39.917,0,0,0,38.391,0A48.008,48.008,0,0,1,447.929,224H368.071A48.159,48.159,0,0,1,388.8,187.08ZM480,114V224H463.941a64.033,64.033,0,0,0-24.271-47.608,40,40,0,1,0-63.335.006A64.233,64.233,0,0,0,352.06,224H336V96H462A18.021,18.021,0,0,1,480,114ZM304,80H287.978A39.841,39.841,0,0,0,295.2,64H304ZM256,32a24,24,0,1,1-24,24A24.028,24.028,0,0,1,256,32ZM208,64h8.805a39.841,39.841,0,0,0,7.217,16H208ZM50,96H320V376H256v-9.353A90.793,90.793,0,0,0,225.212,298.7a56,56,0,1,0-98.424,0A90.8,90.8,0,0,0,96,366.647V376H32V114A18.021,18.021,0,0,1,50,96ZM176,312a40,40,0,1,1,40-40A40.045,40.045,0,0,1,176,312Zm-39.593-.434a55.91,55.91,0,0,0,79.185,0A74.724,74.724,0,0,1,240,366.647V376H112v-9.353A74.724,74.724,0,0,1,136.407,311.566ZM317.4,480H194.605l11.429-40h18.979a32,32,0,0,0,61.974,0h18.979Zm-75.23-40h27.67a15.963,15.963,0,0,1-27.67,0ZM480,406a18.021,18.021,0,0,1-18,18H50a18.021,18.021,0,0,1-18-18V392H480Z"/><circle cx="256" cy="56" r="8"/><circle cx="200" cy="152" r="8"/><circle cx="232" cy="152" r="8"/><circle cx="264" cy="152" r="8"/><path d="M163.077,198.306a8,8,0,0,0,6.863,1.455L200.984,192H264a40,40,0,0,0,0-80H200a40.045,40.045,0,0,0-40,40v40A8,8,0,0,0,163.077,198.306ZM176,152a24.028,24.028,0,0,1,24-24h64a24,24,0,0,1,0,48H200a7.977,7.977,0,0,0-1.94.239L176,181.754Z"/><path d="M56,184h48a8,8,0,0,0,8-8v-3.056l20.422,10.211A8,8,0,0,0,144,176V128a8,8,0,0,0-11.578-7.155L112,131.056V128a8,8,0,0,0-8-8H56a8,8,0,0,0-8,8v48A8,8,0,0,0,56,184Zm72-43.056v22.112l-16-8v-6.112ZM64,136H96v32H64Z"/><path d="M72,248a24,24,0,1,0-24-24A24.028,24.028,0,0,0,72,248Zm0-32a8,8,0,1,1-8,8A8.009,8.009,0,0,1,72,216Z"/><path d="M72,312a24,24,0,1,0-24-24A24.028,24.028,0,0,0,72,312Zm0-32a8,8,0,1,1-8,8A8.009,8.009,0,0,1,72,280Z"/></g></svg>
